<?xml version="1.0" encoding="UTF-8"?>
<svg version="1.1" xmlns="http://www.w3.org/2000/svg" width="512" height="512">
<path d="M0 0 C0.64609443 -0.00623996 1.29218885 -0.01247993 1.9578619 -0.01890898 C4.10908636 -0.0347831 6.25916882 -0.02225818 8.41040039 -0.00964355 C9.95818744 -0.01506721 11.50596932 -0.02219125 13.05374146 -0.03088379 C17.24799933 -0.04909128 21.44186286 -0.04206039 25.63612747 -0.02936745 C30.02956438 -0.01922638 34.42296798 -0.0286362 38.81640625 -0.03491211 C46.19382782 -0.0421853 53.57108911 -0.03260947 60.94848633 -0.0135498 C69.4725895 0.00821836 77.99630996 0.00116675 86.52040386 -0.02085543 C93.84458277 -0.03901882 101.1686466 -0.04156317 108.49284077 -0.03110075 C112.86482833 -0.02487097 117.23663611 -0.02401596 121.60861206 -0.0372467 C125.71933749 -0.04881832 129.82957043 -0.04075589 133.94024277 -0.01766968 C135.44707294 -0.01238954 136.95394469 -0.01388452 138.46075821 -0.02272034 C140.52143228 -0.03368807 142.58053853 -0.01990098 144.64111328 0 C146.36884727 0.00226215 146.36884727 0.00226215 148.13148499 0.00457001 C152.04965494 0.62301579 154.23477585 2.06000774 157.32055664 4.50793457 C158.63330078 6.83654785 158.63330078 6.83654785 159.54321289 9.20324707 C161.27199603 12.62690634 161.27199603 12.62690634 164.58178711 14.28039551 C167.34304157 14.51286782 169.98995582 14.50536612 172.75805664 14.38293457 C184.28520562 14.15895111 184.28520562 14.15895111 189.32055664 17.50793457 C193.78071467 22.45027184 194.44319017 25.01824633 194.38305664 31.63293457 C194.3740332 32.9142627 194.36500977 34.19559082 194.35571289 35.51574707 C194.33831055 36.99687988 194.33831055 36.99687988 194.32055664 38.50793457 C195.16239502 38.4869873 196.0042334 38.46604004 196.87158203 38.44445801 C200.02307016 38.37590495 203.1741757 38.32595194 206.32617188 38.28820801 C207.68502378 38.26820829 209.04379088 38.24099881 210.40234375 38.20617676 C224.99298143 37.84181269 224.99298143 37.84181269 230.32055664 42.50793457 C232.38755429 45.3019106 233.99328616 48.22868303 235.57055664 51.32043457 C235.99079102 52.10225098 236.41102539 52.88406738 236.84399414 53.6895752 C244.66344014 68.40636271 244.66344014 68.40636271 243.32055664 76.50793457 C240.66697166 81.62556275 237.78937838 84.68499399 232.32055664 86.50793457 C229.92564678 86.57763509 227.52887973 86.5924146 225.13305664 86.57043457 C223.86075195 86.56141113 222.58844727 86.5523877 221.27758789 86.54309082 C220.30176758 86.53148926 219.32594727 86.5198877 218.32055664 86.50793457 C218.34150391 87.17325195 218.36245117 87.83856934 218.3840332 88.52404785 C218.46756273 91.56018759 218.51933267 94.596085 218.57055664 97.63293457 C218.60407227 98.67965332 218.63758789 99.72637207 218.67211914 100.80480957 C218.7510382 107.03941546 218.56613199 110.79934823 214.32055664 115.50793457 C211.6471115 117.29023133 210.58285305 117.50793457 207.32055664 117.50793457 C207.34412231 119.3238208 207.34412231 119.3238208 207.36816406 121.1763916 C207.42260633 125.68267115 207.45695871 130.18892181 207.48535156 134.69543457 C207.50040564 136.64307551 207.52085344 138.59068273 207.546875 140.53820801 C207.58340717 143.34330585 207.60031697 146.14795411 207.61352539 148.95324707 C207.62900925 149.81910431 207.6444931 150.68496155 207.66044617 151.57705688 C207.66206997 157.4561469 206.83154046 161.69466601 202.77319336 166.24157715 C199.75782795 168.70881613 196.77774728 170.8973929 193.39086914 172.83215332 C185.97363783 176.96984903 185.97363783 176.96984903 181.54272461 183.86730957 C180.64955185 189.43513976 180.86198373 194.9063794 181.32055664 200.50793457 C181.92512695 200.78766113 182.52969727 201.0673877 183.15258789 201.35559082 C187.14096719 203.47554018 189.89400938 206.22829279 191.32055664 210.50793457 C191.35451602 212.35792043 191.33564944 214.20910073 191.28540039 216.05871582 C191.28217773 217.14990723 191.27895508 218.24109863 191.27563477 219.36535645 C191.26397335 221.6574728 191.21742657 223.9496926 191.13500977 226.24035645 C191.16070932 229.59909085 191.29205039 232.30541866 192.32055664 235.50793457 C194.71987833 237.72095786 196.96483947 239.01173438 199.92016602 240.37902832 C202.99491928 241.82508803 204.54131046 243.64566898 206.32055664 246.50793457 C207.39355409 249.72692692 207.44371648 252.02671646 207.44081116 255.41142273 C207.44287315 257.26030846 207.44287315 257.26030846 207.44497681 259.14654541 C207.44143768 260.51464868 207.43780287 261.8827517 207.43408203 263.25085449 C207.4338 264.68970233 207.43395821 266.12855032 207.43452454 267.56739807 C207.43481187 271.47619924 207.42892538 275.38496983 207.42195058 279.29376388 C207.4157065 283.37771052 207.4151124 287.46165784 207.41392517 291.54560852 C207.41081497 299.28036264 207.40260576 307.01510266 207.39257568 314.74985057 C207.3814049 323.55507111 207.37590166 332.36029231 207.37088025 341.16551816 C207.36042291 359.27966497 207.34282947 377.39379864 207.32055664 395.50793457 C208.08883789 395.62266113 208.85711914 395.7373877 209.64868164 395.85559082 C213.31802613 396.75146879 214.86795302 398.71469155 217.32055664 401.50793457 C218.59917279 404.06516686 218.43392273 405.87530559 218.41821289 408.73449707 C218.41571533 409.66342773 218.41321777 410.5923584 218.41064453 411.54943848 C218.40154053 412.73199219 218.39243652 413.9145459 218.38305664 415.13293457 C218.36243164 418.88668457 218.34180664 422.64043457 218.32055664 426.50793457 C227.56055664 426.50793457 236.80055664 426.50793457 246.32055664 426.50793457 C246.16299187 419.20824905 246.16299187 419.20824905 245.96020508 411.90979004 C245.89360417 405.78358055 246.15433328 402.128515 250.32055664 397.50793457 C252.99400178 395.72563781 254.05826023 395.50793457 257.32055664 395.50793457 C257.31686947 394.83317266 257.3131823 394.15841076 257.30938339 393.46320152 C257.22101059 377.03777636 257.15483653 360.61242659 257.11330795 344.18681908 C257.09269075 336.2434777 257.06458641 328.30029512 257.01879883 320.35705566 C256.97890509 313.43297456 256.9531177 306.50900846 256.94420266 299.58481562 C256.93899214 295.91912448 256.92676358 292.25376233 256.89763641 288.58817673 C256.86536858 284.49406141 256.86459885 280.4005165 256.86645508 276.30627441 C256.85207397 275.09354858 256.83769287 273.88082275 256.82287598 272.63134766 C256.853988 266.3003926 256.96853217 262.27362166 261.32055664 257.50793457 C265.32123254 254.2641433 268.25913626 254.14750789 273.32055664 254.50793457 C276.14531229 255.3556737 278.77231272 256.51985374 281.44555664 257.75793457 C282.13520508 258.05828613 282.82485352 258.3586377 283.53540039 258.66809082 C288.27291953 260.79680401 292.62958962 263.01704901 295.62524414 267.42980957 C296.4766258 269.97438847 296.51602373 272.08018533 296.44555664 274.75793457 C296.42750977 275.64996582 296.40946289 276.54199707 296.39086914 277.46105957 C296.35606445 278.4742627 296.35606445 278.4742627 296.32055664 279.50793457 C297.11075195 279.7373877 297.90094727 279.96684082 298.71508789 280.20324707 C303.36547821 281.88605353 307.63452631 284.08741674 312.00805664 286.38293457 C312.86206055 286.81734863 313.71606445 287.2517627 314.59594727 287.69934082 C315.82667969 288.34322754 315.82667969 288.34322754 317.08227539 289.00012207 C317.82437256 289.38539063 318.56646973 289.77065918 319.33105469 290.16760254 C322.9609312 292.61305868 324.4758722 295.29453421 325.32055664 299.50793457 C325.40540044 300.8810831 325.4426119 302.25771787 325.44081116 303.63348389 C325.44287315 304.85337006 325.44287315 304.85337006 325.44497681 306.09790039 C325.44138153 306.98119019 325.43778625 307.86447998 325.43408203 308.77453613 C325.43422806 309.71146301 325.43437408 310.64838989 325.43452454 311.6137085 C325.43382821 314.70868245 325.42604887 317.80359613 325.41821289 320.89855957 C325.41634772 323.04518603 325.41492428 325.19181291 325.41392517 327.33843994 C325.41010782 332.98715389 325.40028418 338.63584211 325.38922119 344.2845459 C325.37899028 350.04910942 325.37442395 355.81367709 325.36938477 361.57824707 C325.35866124 372.88815421 325.34159417 384.19804225 325.32055664 395.50793457 C326.11365234 395.64530029 326.90674805 395.78266602 327.72387695 395.92419434 C331.83069795 396.8474182 332.87493193 399.1791676 335.32055664 402.50793457 C336.57304166 405.01290461 336.43430071 406.71646731 336.41821289 409.51574707 C336.41571533 410.40407227 336.41321777 411.29239746 336.41064453 412.2076416 C336.39698853 413.90316162 336.39698853 413.90316162 336.38305664 415.63293457 C336.36243164 419.22168457 336.34180664 422.81043457 336.32055664 426.50793457 C345.23055664 426.50793457 354.14055664 426.50793457 363.32055664 426.50793457 C363.20264724 420.24080221 363.20264724 420.24080221 363.05029297 413.9744873 C362.99725498 408.34960851 363.60943785 404.46540893 366.32055664 399.50793457 C368.75805664 397.07043457 368.75805664 397.07043457 371.32055664 395.50793457 C372.64055664 395.50793457 373.96055664 395.50793457 375.32055664 395.50793457 C375.32055664 303.76793457 375.32055664 212.02793457 375.32055664 117.50793457 C373.67055664 117.17793457 372.02055664 116.84793457 370.32055664 116.50793457 C365.88535747 113.72304207 364.55943538 111.53632476 363.32055664 106.50793457 C363.09170925 103.04442416 363.1312235 99.60197545 363.19555664 96.13293457 C363.20458008 95.20609863 363.21360352 94.2792627 363.22290039 93.32434082 C363.24632727 91.0519338 363.27912916 88.78007277 363.32055664 86.50793457 C362.74611816 86.52364502 362.17167969 86.53935547 361.57983398 86.55554199 C358.95184355 86.6182897 356.32401127 86.65704963 353.69555664 86.69543457 C352.79192383 86.72057129 351.88829102 86.74570801 350.95727539 86.77160645 C345.6344016 86.82988609 341.90523919 86.5356905 337.32055664 83.50793457 C333.02806157 78.75138598 331.86319787 75.71671727 331.93237305 69.40930176 C332.66488219 63.93437177 335.36760191 59.41237431 338.00805664 54.63293457 C338.53850586 53.6145752 339.06895508 52.59621582 339.61547852 51.54699707 C342.87250799 45.4725372 345.49080311 40.78451908 352.32055664 38.50793457 C352.35793945 37.63910645 352.39532227 36.77027832 352.43383789 35.87512207 C353.20302941 22.39164726 353.20302941 22.39164726 358.82055664 17.19543457 C362.34885692 14.81383188 364.85024619 14.4043935 368.99633789 14.50793457 C378.97410673 15.04030181 378.97410673 15.04030181 387.86352539 11.58215332 C389.36949614 9.26697309 389.36949614 9.26697309 390.25805664 6.83215332 C391.72018784 3.63374133 393.37684682 2.42782024 396.32055664 0.50793457 C399.72874451 0 399.72874451 0 403.67773438 -0.00964355 C404.76164963 -0.02015747 404.76164963 -0.02015747 405.86746216 -0.03088379 C408.24675379 -0.04843184 410.62484748 -0.03685221 413.00415039 -0.02331543 C414.66415128 -0.02601158 416.32415062 -0.02989503 417.98414612 -0.03491211 C421.46012434 -0.04080305 424.93569082 -0.03225865 428.41162109 -0.0135498 C432.85823885 0.00922208 437.30388989 -0.00387414 441.75047207 -0.02783966 C445.1778333 -0.04232399 448.60496703 -0.03767936 452.03233528 -0.02732849 C453.67132749 -0.02466754 455.31034062 -0.02790869 456.9493084 -0.0372467 C459.24475316 -0.04745429 461.53865403 -0.03185427 463.83398438 -0.00964355 C465.13794662 -0.00646118 466.44190887 -0.00327881 467.78538513 0 C472.46633328 0.67256012 475.62978547 2.60299714 478.76611328 6.13659668 C482.27907059 12.80028214 481.87274047 19.69737427 481.75805664 27.07043457 C481.76514648 28.35885254 481.77223633 29.64727051 481.77954102 30.97473145 C481.68951409 44.40259297 481.68951409 44.40259297 476.89086914 50.25012207 C473.67685407 52.76921496 471.30615668 53.87294067 467.32055664 54.50793457 C467.33626709 55.17848877 467.35197754 55.84904297 467.36816406 56.53991699 C467.43070322 59.59166967 467.46960727 62.64328725 467.50805664 65.69543457 C467.54576172 67.27808105 467.54576172 67.27808105 467.58422852 68.8927002 C467.59389648 69.91428223 467.60356445 70.93586426 467.61352539 71.98840332 C467.62923584 72.92579346 467.64494629 73.86318359 467.66113281 74.82897949 C467.06606985 79.50971487 465.0253881 81.95306725 461.38305664 84.82043457 C458.32055664 86.50793457 458.32055664 86.50793457 454.32055664 86.50793457 C454.33626709 87.11266602 454.35197754 87.71739746 454.36816406 88.3404541 C454.43087544 91.10451753 454.46966075 93.86843078 454.50805664 96.63293457 C454.54576172 98.05992676 454.54576172 98.05992676 454.58422852 99.51574707 C454.64089616 104.95584133 454.43056223 108.82811663 451.32055664 113.50793457 C447.97997499 116.76286028 447.09242683 117.50793457 442.32055664 117.50793457 C442.32424381 118.12269527 442.32793098 118.73745598 442.33172989 119.37084579 C442.42005318 134.32680224 442.48625263 149.28270485 442.52780533 164.23885727 C442.54843387 171.4715486 442.57655975 178.70406589 442.62231445 185.93664551 C442.66217364 192.24030684 442.68798734 198.54384212 442.69691062 204.84762597 C442.70212716 208.185821 442.71648625 211.52336996 442.74347687 214.8615036 C442.77241039 218.58729146 442.77651669 222.31232633 442.7746582 226.03820801 C442.79622986 227.69976929 442.79622986 227.69976929 442.8182373 229.39489746 C442.81273865 230.4100946 442.80723999 231.42529175 442.80157471 232.47125244 C442.80526188 233.35248653 442.80894905 234.23372063 442.81274796 235.14165878 C442.15238395 238.31644735 440.84461752 239.53635106 438.32055664 241.50793457 C437.33055664 241.50793457 436.34055664 241.50793457 435.32055664 241.50793457 C435.32055664 248.10793457 435.32055664 254.70793457 435.32055664 261.50793457 C436.97055664 261.83793457 438.62055664 262.16793457 440.32055664 262.50793457 C442.55094311 265.85351427 442.56859147 266.90187628 442.56106567 270.80400085 C442.56518967 272.45094688 442.56518967 272.45094688 442.56939697 274.13116455 C442.56220642 275.33597473 442.55501587 276.54078491 442.54760742 277.78210449 C442.54789948 279.05050674 442.54819153 280.318909 442.54849243 281.62574768 C442.54906687 285.10485444 442.53729786 288.58382364 442.52334452 292.0628984 C442.51085235 295.69840408 442.50966785 299.33391282 442.5072937 302.96943665 C442.50107447 309.85423124 442.48465769 316.7389624 442.46459472 323.62372905 C442.44224948 331.46160913 442.43124576 339.29949222 442.42120385 347.13739622 C442.40029183 363.26094614 442.36510727 379.38443227 442.32055664 395.50793457 C443.27663818 395.64602539 444.23271973 395.78411621 445.21777344 395.9263916 C449.8635226 396.79712687 450.6673255 398.71760436 453.32055664 402.50793457 C454.30099628 405.44925348 454.43676866 407.33295122 454.41821289 410.39465332 C454.41499023 411.33244629 454.41176758 412.27023926 454.40844727 413.2364502 C454.40006836 414.21291504 454.39168945 415.18937988 454.38305664 416.19543457 C454.37854492 417.18350098 454.3740332 418.17156738 454.36938477 419.1895752 C454.35759967 421.62908931 454.34114675 424.06848146 454.32055664 426.50793457 C455.24223633 426.6239502 456.16391602 426.73996582 457.11352539 426.85949707 C461.5672447 427.76000548 463.10117004 429.36341742 466.32055664 432.50793457 C467.34028793 435.56712845 467.43589266 437.63211482 467.41821289 440.83215332 C467.41499023 441.86018066 467.41176758 442.88820801 467.40844727 443.9473877 C467.40006836 445.01924316 467.39168945 446.09109863 467.38305664 447.19543457 C467.37854492 448.2788916 467.3740332 449.36234863 467.36938477 450.4786377 C467.35759407 453.15512542 467.34113727 455.83150234 467.32055664 458.50793457 C468.94864258 458.89852051 468.94864258 458.89852051 470.60961914 459.29699707 C474.18138134 460.46251947 475.44410831 461.03441706 477.69555664 463.88293457 C478.17766602 464.46816895 478.65977539 465.05340332 479.15649414 465.65637207 C482.77989502 471.41976809 481.58504987 479.23541487 481.63305664 485.75793457 C481.66206055 487.05602051 481.69106445 488.35410645 481.72094727 489.69152832 C481.8123278 503.48295939 481.8123278 503.48295939 477.32055664 508.50793457 C472.17558258 512.75018443 468.41566564 513.08036825 462.03938293 513.00914001 C461.11349025 513.01467441 460.18759756 513.02020881 459.23364753 513.02591091 C456.13579675 513.03950799 453.03875292 513.02455318 449.94091797 513.00964355 C447.71832436 513.01342698 445.49573311 513.01892722 443.27314758 513.02601624 C437.24033579 513.03998243 431.20780881 513.02879376 425.17501283 513.01230502 C418.86632194 512.99846375 412.55764773 513.00491335 406.24894714 513.00843811 C395.65761948 513.01114036 385.06639232 512.99774877 374.47509766 512.9744873 C363.5749898 512.95055028 352.67503176 512.94349011 341.77490234 512.95397949 C328.63814036 512.96659858 315.50145365 512.96410644 302.36469078 512.94832039 C297.34598867 512.9425524 292.32733667 512.9426496 287.3086338 512.94738579 C281.4046218 512.95214603 275.500818 512.94209343 269.59684563 512.92043114 C267.42599312 512.91485085 265.25512065 512.91440928 263.08426666 512.919384 C260.12953724 512.92530766 257.17545076 512.91288804 254.22077942 512.89561462 C252.92099481 512.90462969 252.92099481 512.90462969 251.59495193 512.91382688 C245.79096825 512.85178253 245.79096825 512.85178253 243.5779373 511.23416477 C242.32055664 509.50793457 242.32055664 509.50793457 242.32055664 505.50793457 C235.72055664 505.50793457 229.12055664 505.50793457 222.32055664 505.50793457 C221.99055664 507.15793457 221.66055664 508.80793457 221.32055664 510.50793457 C218.68235502 513.14613619 216.76616577 512.75534035 213.17524266 512.78474557 C212.30580675 512.78164837 211.43637084 512.77855117 210.54058838 512.77536011 C209.62023009 512.77989122 208.6998718 512.78442233 207.75162387 512.78909075 C204.64857475 512.80181341 201.54569937 512.80010932 198.44262695 512.79846191 C196.22549207 512.80444235 194.00835927 512.81124676 191.79122925 512.81881714 C185.75393621 512.83653593 179.7166998 512.84117505 173.67938328 512.84244871 C168.64456732 512.84434422 163.60976465 512.85169792 158.57495379 512.8587929 C147.3763248 512.87416532 136.17772265 512.88012882 124.97908631 512.8787822 C124.30673246 512.87870229 123.6343786 512.87862237 122.94165039 512.87854004 C122.26847632 512.87845828 121.59530225 512.87837652 120.90172896 512.87829228 C109.99681996 512.87747973 99.09204921 512.8966072 88.18718019 512.92481677 C76.9931821 512.9535459 65.79923462 512.96699073 54.60519481 512.96562922 C48.31942869 512.96511871 42.03381887 512.9708507 35.74808502 512.99198532 C29.83507228 513.01132238 23.92236561 513.01152304 18.00934219 512.99695206 C15.83812896 512.99485708 13.6668968 512.99960564 11.49571609 513.01167297 C8.53293542 513.02707403 5.57121674 513.01785086 2.60845947 513.00241089 C1.74794645 513.01269801 0.88743342 513.02298514 0.00084424 513.033584 C-5.37239681 512.97164999 -8.39334405 512.04440638 -12.67944336 508.50793457 C-18.17655879 502.31451166 -17.23735489 493.68673099 -17.11694336 485.94543457 C-17.1240332 484.6570166 -17.13112305 483.36859863 -17.13842773 482.0411377 C-17.04840081 468.61327617 -17.04840081 468.61327617 -12.24975586 462.76574707 C-9.03574079 460.24665418 -6.6650434 459.14292848 -2.67944336 458.50793457 C-2.69515381 457.83738037 -2.71086426 457.16682617 -2.72705078 456.47595215 C-2.78958994 453.42419947 -2.82849399 450.37258189 -2.86694336 447.32043457 C-2.89208008 446.26533691 -2.9172168 445.21023926 -2.94311523 444.12316895 C-2.9527832 443.10158691 -2.96245117 442.08000488 -2.97241211 441.02746582 C-2.99597778 439.62138062 -2.99597778 439.62138062 -3.02001953 438.18688965 C-2.42495657 433.50615427 -0.38427482 431.06280189 3.25805664 428.19543457 C6.32055664 426.50793457 6.32055664 426.50793457 10.32055664 426.50793457 C10.30484619 425.90320313 10.28913574 425.29847168 10.27294922 424.67541504 C10.21023784 421.91135162 10.17145253 419.14743837 10.13305664 416.38293457 C10.10791992 415.43160645 10.0827832 414.48027832 10.05688477 413.50012207 C10.00021712 408.06002781 10.21055105 404.18775251 13.32055664 399.50793457 C16.66113829 396.25300886 17.54868645 395.50793457 22.32055664 395.50793457 C22.32055664 303.76793457 22.32055664 212.02793457 22.32055664 117.50793457 C19.35055664 117.01293457 19.35055664 117.01293457 16.32055664 116.50793457 C13.32297423 114.12980506 11.52810846 111.13059001 10.32055664 107.50793457 C10.23911809 105.88073975 10.21302644 104.25041738 10.22290039 102.62121582 C10.22612305 101.68342285 10.2293457 100.74562988 10.23266602 99.77941895 C10.24104492 98.8029541 10.24942383 97.82648926 10.25805664 96.82043457 C10.26256836 95.83236816 10.26708008 94.84430176 10.27172852 93.82629395 C10.28351361 91.38677983 10.29996653 88.94738768 10.32055664 86.50793457 C8.93803711 86.33391113 8.93803711 86.33391113 7.52758789 86.15637207 C3.07386858 85.25586366 1.53994324 83.65245172 -1.67944336 80.50793457 C-2.69917465 77.44874069 -2.79477938 75.38375433 -2.77709961 72.18371582 C-2.77387695 71.15568848 -2.7706543 70.12766113 -2.76733398 69.06848145 C-2.75895508 67.99662598 -2.75057617 66.92477051 -2.74194336 65.82043457 C-2.73517578 64.19524902 -2.73517578 64.19524902 -2.72827148 62.53723145 C-2.71648079 59.86074372 -2.70002399 57.1843668 -2.67944336 54.50793457 C-3.76483398 54.24754395 -4.85022461 53.98715332 -5.96850586 53.71887207 C-9.54026806 52.55334967 -10.80299503 51.98145208 -13.05444336 49.13293457 C-13.53655273 48.5477002 -14.01866211 47.96246582 -14.51538086 47.35949707 C-18.13878173 41.59610105 -16.94393659 33.78045427 -16.99194336 27.25793457 C-17.02094727 25.95984863 -17.04995117 24.6617627 -17.07983398 23.32434082 C-17.17121452 9.53290975 -17.17121452 9.53290975 -12.67944336 4.50793457 C-8.31290962 1.12724076 -5.50805986 0.0072118 0 0 Z M101.32055664 86.50793457 C101.11137637 92.77421655 101.11137637 92.77421655 100.93261719 99.04138184 C100.67400693 105.2473987 100.06393325 110.85305398 95.38305664 115.38293457 C93.32055664 116.50793457 93.32055664 116.50793457 89.32055664 117.50793457 C89.32055664 209.24793457 89.32055664 300.98793457 89.32055664 395.50793457 C92.78555664 396.99293457 92.78555664 396.99293457 96.32055664 398.50793457 C99.96471348 402.2735633 100.40917408 406.19712332 100.63696289 411.27355957 C100.6750708 412.07567871 100.71317871 412.87779785 100.75244141 413.70422363 C100.79554443 414.71194824 100.83864746 415.71967285 100.88305664 416.75793457 C101.02743164 419.97543457 101.17180664 423.19293457 101.32055664 426.50793457 C110.23055664 426.50793457 119.14055664 426.50793457 128.32055664 426.50793457 C128.4906046 419.53836481 128.4906046 419.53836481 128.6184082 412.56799316 C128.8188513 406.81738633 129.20822422 402.88246268 133.32055664 398.50793457 C135.30055664 397.51793457 137.28055664 396.52793457 139.32055664 395.50793457 C139.32055664 303.76793457 139.32055664 212.02793457 139.32055664 117.50793457 C137.34055664 116.51793457 135.36055664 115.52793457 133.32055664 114.50793457 C128.43563607 109.31155933 128.66804774 103.88668035 128.57055664 97.13293457 C128.48805664 93.62668457 128.40555664 90.12043457 128.32055664 86.50793457 C119.41055664 86.50793457 110.50055664 86.50793457 101.32055664 86.50793457 Z " fill="#030201" transform="translate(23.679443359375,-0.5079345703125)"/>
<path d="M0 0 C153.78 0 307.56 0 466 0 C466 7.92 466 15.84 466 24 C461.91664276 24.00546844 461.91664276 24.00546844 457.75079346 24.01104736 C432.14587075 24.04723165 406.54106575 24.10537964 380.93623734 24.18390274 C367.77129151 24.22374489 354.6064059 24.25611107 341.44140625 24.27099609 C329.96938134 24.28398579 318.49748866 24.3108817 307.02553821 24.35461307 C300.94886348 24.37728824 294.8723522 24.39290705 288.79563141 24.39188385 C283.07958414 24.39114082 277.36389902 24.40894784 271.6479454 24.44116783 C269.54686763 24.44970765 267.44574942 24.45138929 265.34466171 24.44580269 C262.48172708 24.43920264 259.61995827 24.45698725 256.75714111 24.48101807 C255.92056575 24.47325765 255.08399039 24.46549723 254.22206426 24.45750165 C250.61509788 24.511312 248.45393217 24.6629633 245.51517868 26.84493637 C243.83571377 29.01461339 243.83571377 29.01461339 243 32 C236.4 32 229.8 32 223 32 C222.01 30.02 221.02 28.04 220 26 C216.7212876 24.3606438 213.08761538 24.84596649 209.48336792 24.84178162 C208.59144466 24.83684364 207.69952139 24.83190566 206.78057015 24.82681805 C203.77412554 24.8113873 200.76770238 24.80306738 197.76123047 24.79467773 C195.61317759 24.78510359 193.46512661 24.77509379 191.31707764 24.76467896 C185.47028723 24.73757357 179.6234887 24.71659457 173.77666998 24.69667697 C167.67207187 24.67485208 161.56749895 24.64744633 155.46292114 24.62062073 C143.89614659 24.57064643 132.32935809 24.52572522 120.7625562 24.48259836 C107.59708465 24.43326641 94.43163837 24.37833332 81.26619124 24.32291877 C54.17748421 24.20902603 27.0887527 24.10240161 0 24 C0 16.08 0 8.16 0 0 Z " fill="#FCE5BE" transform="translate(23,473)"/>
<path d="M0 0 C12.21 0 24.42 0 37 0 C37.01458252 3.6194458 37.02916504 7.2388916 37.04418945 10.96801758 C37.09445262 22.90634801 37.16088144 34.84453659 37.23571491 46.78273487 C37.28070405 54.02319192 37.32011139 61.26359944 37.34643555 68.50415039 C37.36939053 74.81412031 37.40276023 81.1239339 37.44870156 87.4337799 C37.47266787 90.77564334 37.49137415 94.11735163 37.49761391 97.45929909 C37.50719124 101.18770201 37.53517478 104.91553488 37.56762695 108.64379883 C37.56619186 109.75510162 37.56475677 110.86640442 37.5632782 112.01138306 C37.57581635 113.02520554 37.58835449 114.03902802 37.60127258 115.08357239 C37.60588155 115.96572827 37.61049051 116.84788416 37.61523914 117.75677204 C38.08818505 120.51413537 38.7539922 121.36573259 41 123 C42.32 123.33 43.64 123.66 45 124 C45 130.6 45 137.2 45 144 C42.525 144.99 42.525 144.99 40 146 C37.4208922 148.5791078 37.74226435 149.58826668 37.7215271 153.17581177 C37.71036362 154.27240112 37.69920013 155.36899048 37.68769836 156.49880981 C37.68553818 157.70721527 37.68337799 158.91562073 37.68115234 160.16064453 C37.66608391 162.06302887 37.66608391 162.06302887 37.65071106 164.00384521 C37.62334625 167.48707384 37.6082426 170.97026188 37.59528303 174.45356989 C37.57968071 178.09180529 37.55288133 181.72995745 37.5272522 185.36813354 C37.48041289 192.25998295 37.44369381 199.15184792 37.41057932 206.04377544 C37.37239424 213.88894757 37.32297468 221.73403622 37.27259517 229.57913804 C37.1691987 245.7193712 37.08144675 261.85963889 37 278 C24.79 278 12.58 278 0 278 C0 186.26 0 94.52 0 0 Z " fill="#F8BD63" transform="translate(414,117)"/>
<path d="M0 0 C12.21 0 24.42 0 37 0 C37 91.74 37 183.48 37 278 C24.79 278 12.58 278 0 278 C0 186.26 0 94.52 0 0 Z " fill="#F7BD63" transform="translate(61,117)"/>
<path d="M0 0 C11.88 0 23.76 0 36 0 C38.67794098 33.24283523 38.67794098 33.24283523 34.31396484 40.99511719 C30.24522741 45.25548798 25.47358051 47.71541094 20.09619141 49.98876953 C16.43820735 51.75342944 13.82847872 54.34304256 12 58 C11.74181554 62.20929703 11.72894627 66.42246584 11.70483398 70.63867188 C11.68767618 72.72854048 11.64379781 74.81680334 11.59960938 76.90625 C11.58947689 78.24478007 11.58096252 79.58332356 11.57421875 80.921875 C11.55963623 82.13456055 11.54505371 83.34724609 11.5300293 84.59667969 C12.10230997 88.74088363 13.33454606 90.79906397 16 94 C16.89509277 94.49902832 17.79018555 94.99805664 18.71240234 95.51220703 C21 97 21 97 21.61181641 99.64794922 C21.60843262 100.68967285 21.60504883 101.73139648 21.6015625 102.8046875 C21.61703125 103.94550781 21.6325 105.08632812 21.6484375 106.26171875 C21.64070313 107.45410156 21.63296875 108.64648438 21.625 109.875 C21.625 112.22659855 21.63755236 114.57823838 21.6640625 116.9296875 C21.65842285 117.97366699 21.6527832 119.01764648 21.64697266 120.09326172 C22.17202186 124.41638467 23.82548942 127.05369201 27.19140625 129.765625 C28.36509766 130.50039063 28.36509766 130.50039063 29.5625 131.25 C30.74005859 132.00023437 30.74005859 132.00023437 31.94140625 132.765625 C33.9618051 134.01274348 33.9618051 134.01274348 36 135 C36 182.19 36 229.38 36 278 C24.12 278 12.24 278 0 278 C0 186.26 0 94.52 0 0 Z " fill="#FDC064" transform="translate(179,117)"/>
<path d="M0 0 C144.54 0 289.08 0 438 0 C438 5.28 438 10.56 438 16 C293.46 16 148.92 16 0 16 C0 10.72 0 5.44 0 0 Z " fill="#FFCF86" transform="translate(37,442)"/>
<path d="M0 0 C5.28 0 10.56 0 16 0 C16.00364563 1.45468185 16.00729126 2.90936371 16.01104736 4.40812683 C16.04796528 18.10742779 16.10546566 31.80653463 16.18390274 45.50565624 C16.22370113 52.54877794 16.25608946 59.59178777 16.27099609 66.63500977 C16.28539881 73.4302839 16.32050072 80.22519886 16.36830902 87.02031898 C16.3831629 89.61465762 16.3910433 92.20904572 16.39188385 94.80342674 C16.39424309 98.43337474 16.42124091 102.06235666 16.45410156 105.69213867 C16.4490712 106.7681987 16.44404083 107.84425873 16.43885803 108.95292664 C16.50127219 113.40012153 16.56093395 116.22621199 18.78411865 120.14424133 C21.05949571 122.32437854 21.05949571 122.32437854 25 123 C25 129.6 25 136.2 25 143 C22.525 143.99 22.525 143.99 20 145 C17.03509698 147.97488561 16.62167987 150.17199363 16.60127258 154.3024292 C16.58873444 155.37652542 16.57619629 156.45062164 16.5632782 157.55726624 C16.56471329 158.73042892 16.56614838 159.90359161 16.56762695 161.11230469 C16.5574353 162.35159225 16.54724365 163.59087982 16.53674316 164.86772156 C16.51172882 168.26213052 16.49988773 171.65610675 16.49388909 175.05057049 C16.48450749 178.59939399 16.45830431 182.14809224 16.43388367 185.69683838 C16.390209 192.41508933 16.36166804 199.133316 16.33856028 205.85166574 C16.31151375 213.5010199 16.26760194 221.15024813 16.22227156 228.79951239 C16.12941146 244.5329458 16.05833528 260.2663986 16 276 C10.72 276 5.44 276 0 276 C0 184.92 0 93.84 0 0 Z " fill="#FECE85" transform="translate(434,118)"/>
<path d="M0 0 C5.28 0 10.56 0 16 0 C16 91.08 16 182.16 16 276 C10.72 276 5.44 276 0 276 C0 184.92 0 93.84 0 0 Z " fill="#FFCE85" transform="translate(81,118)"/>
<path d="M0 0 C18.91484875 -0.25476365 37.82921221 -0.4510005 56.74542332 -0.56993389 C65.52887478 -0.62662803 74.31124 -0.70390076 83.09399414 -0.82983398 C90.75019318 -0.93956144 98.40560559 -1.01045966 106.06256908 -1.03497344 C110.11646512 -1.04930199 114.16811111 -1.08290202 118.22128487 -1.16303062 C122.03956949 -1.23790156 125.85468652 -1.26069283 129.67363548 -1.24418449 C131.07218298 -1.24720235 132.47084004 -1.26897929 133.86875153 -1.31126022 C138.13288633 -1.43386818 141.94286051 -1.37581694 146 0 C148.51616913 2.65100722 150.07466853 5.16184226 151.69854641 8.42822552 C152.88367866 11.22462404 152.88367866 11.22462404 155.7578125 13.14453125 C160.45868382 14.38488163 165.02975643 14.57260601 169.875 14.6875 C170.84953125 14.72166016 171.8240625 14.75582031 172.828125 14.79101562 C175.21835798 14.87303342 177.60915874 14.93820464 180 15 C180 17.97 180 20.94 180 24 C120.6 24 61.2 24 0 24 C0 16.08 0 8.16 0 0 Z " fill="#FCE5BE" transform="translate(23,15)"/>
<path d="M0 0 C7 2 7 2 8 3 C8.45848596 6.00058634 8.83641389 9.00688911 9.20703125 12.01953125 C9.87893558 15.54764283 9.87893558 15.54764283 14 19 C21.26 22.63 28.52 26.26 36 30 C36 60.69 36 91.38 36 123 C24.12 123 12.24 123 0 123 C0 82.41 0 41.82 0 0 Z " fill="#FDC165" transform="translate(297,272)"/>
<path d="M0 0 C67.98 0 135.96 0 206 0 C208.64 5.28 211.28 10.56 214 16 C143.38 16 72.76 16 0 16 C0 10.72 0 5.44 0 0 Z " fill="#FECE85" transform="translate(37,54)"/>
<path d="M0 0 C3.7779398 1.8889699 6.70040656 3.98469263 10 6.5625 C12.23807703 8.25143488 12.23807703 8.25143488 16 10 C16 56.86 16 103.72 16 152 C10.72 152 5.44 152 0 152 C0 101.84 0 51.68 0 0 Z " fill="#FECE85" transform="translate(199,242)"/>
<path d="M0 0 C2.64838098 0.0015865 5.25994004 0.05538194 7.90283203 0.15869141 C9.30668078 0.17736203 10.71059505 0.19158755 12.11453247 0.2015686 C15.79555762 0.23960712 19.47258487 0.33768215 23.15203857 0.4486084 C26.91216943 0.55123594 30.67295194 0.59664592 34.43408203 0.64697266 C41.80329654 0.75396514 49.16839931 0.92971225 56.53564453 1.13525391 C56.53564453 8.72525391 56.53564453 16.31525391 56.53564453 24.13525391 C24.85564453 24.13525391 -6.82435547 24.13525391 -39.46435547 24.13525391 C-39.46435547 21.49525391 -39.46435547 18.85525391 -39.46435547 16.13525391 C-37.54623047 16.09658203 -37.54623047 16.09658203 -35.58935547 16.05712891 C-33.88098982 16.00080916 -32.1726578 15.94346273 -30.46435547 15.88525391 C-29.62517578 15.87107422 -28.78599609 15.85689453 -27.92138672 15.84228516 C-22.10392588 15.61680218 -17.0680261 14.91891078 -12.46435547 11.13525391 C-11.64426455 9.45474672 -10.86869777 7.75210592 -10.12792969 6.03515625 C-7.36565739 1.30013839 -5.43807442 0.39103036 0 0 Z " fill="#FDE5BE" transform="translate(432.46435546875,13.86474609375)"/>
<path d="M0 0 C31.35 0 62.7 0 95 0 C95 5.28 95 10.56 95 16 C61.01 16 27.02 16 -8 16 C-5.36 10.72 -2.72 5.44 0 0 Z " fill="#FFCE85" transform="translate(380,54)"/>
<path d="M0 0 C6 2 6 2 16 7 C16 37.36 16 67.72 16 99 C10.72 99 5.44 99 0 99 C0 66.33 0 33.66 0 0 Z " fill="#FECE85" transform="translate(317,295)"/>
<path d="M0 0 C153.78 0 307.56 0 466 0 C466 0.33 466 0.66 466 1 C326.74 1 187.48 1 44 1 C44 8.59 44 16.18 44 24 C29.48 24 14.96 24 0 24 C0 16.08 0 8.16 0 0 Z " fill="#D3AF77" transform="translate(23,473)"/>
<path d="M0 0 C14.52 0 29.04 0 44 0 C44 7.59 44 15.18 44 23 C88.88 23 133.76 23 180 23 C180 23.33 180 23.66 180 24 C120.6 24 61.2 24 0 24 C0 16.08 0 8.16 0 0 Z " fill="#EABF7E" transform="translate(23,15)"/>
<path d="M0 0 C19.8 0 39.6 0 60 0 C60 5.61 60 11.22 60 17 C40.2 17 20.4 17 0 17 C0 11.39 0 5.78 0 0 Z " fill="#EFC380" transform="translate(285,410)"/>
<path d="M0 0 C19.8 0 39.6 0 60 0 C60 5.61 60 11.22 60 17 C40.2 17 20.4 17 0 17 C0 11.39 0 5.78 0 0 Z " fill="#F0C380" transform="translate(167,410)"/>
<path d="M0 0 C19.8 0 39.6 0 60 0 C60 5.61 60 11.22 60 17 C40.2 17 20.4 17 0 17 C0 11.39 0 5.78 0 0 Z " fill="#F0C380" transform="translate(167,85)"/>
<path d="M0 0 C19.47 0 38.94 0 59 0 C59 5.61 59 11.22 59 17 C39.53 17 20.06 17 0 17 C0 11.39 0 5.78 0 0 Z " fill="#F3C681" transform="translate(403,410)"/>
<path d="M0 0 C19.47 0 38.94 0 59 0 C59 5.61 59 11.22 59 17 C39.53 17 20.06 17 0 17 C0 11.39 0 5.78 0 0 Z " fill="#F3C681" transform="translate(50,410)"/>
<path d="M0 0 C19.47 0 38.94 0 59 0 C59 5.61 59 11.22 59 17 C39.53 17 20.06 17 0 17 C0 11.39 0 5.78 0 0 Z " fill="#F3C681" transform="translate(403,85)"/>
<path d="M0 0 C19.47 0 38.94 0 59 0 C59 5.61 59 11.22 59 17 C39.53 17 20.06 17 0 17 C0 11.39 0 5.78 0 0 Z " fill="#F3C681" transform="translate(50,85)"/>
<path d="M0 0 C2.0441629 0.05018138 4.08844311 0.09580518 6.1328125 0.13671875 C11.13310653 0.24672284 16.12777199 0.41913118 21.125 0.625 C19.87523244 4.27816671 19.45401247 5.40565836 16.125 7.625 C13.72070312 7.89624023 13.72070312 7.89624023 10.90625 7.93359375 C9.89175781 7.95873047 8.87726563 7.98386719 7.83203125 8.00976562 C5.69407106 8.04492088 3.5560431 8.07617119 1.41796875 8.10351562 C-0.10376953 8.1431543 -0.10376953 8.1431543 -1.65625 8.18359375 C-3.0494043 8.20377563 -3.0494043 8.20377563 -4.47070312 8.22436523 C-7.28523368 8.45396869 -7.28523368 8.45396869 -9.875 11.625 C-10.205 15.585 -10.535 19.545 -10.875 23.625 C-25.395 23.625 -39.915 23.625 -54.875 23.625 C-54.875 20.985 -54.875 18.345 -54.875 15.625 C-52.956875 15.58632813 -52.956875 15.58632813 -51 15.546875 C-49.29163435 15.49055525 -47.58330233 15.43320882 -45.875 15.375 C-45.03582031 15.36082031 -44.19664062 15.34664062 -43.33203125 15.33203125 C-37.6302768 15.11103302 -32.30701558 14.50565247 -27.875 10.625 C-27.13468795 8.90033574 -26.42617718 7.16182875 -25.7421875 5.4140625 C-21.03023671 -3.27289891 -8.46772456 -0.35914645 0 0 Z " fill="#FDCE85" transform="translate(447.875,14.375)"/>
<path d="M0 0 C14.52 0 29.04 0 44 0 C44 5.28 44 10.56 44 16 C29.48 16 14.96 16 0 16 C0 10.72 0 5.44 0 0 Z " fill="#FFC265" transform="translate(37,442)"/>
<path d="M0 0 C14.52 0 29.04 0 44 0 C41.36 5.28 38.72 10.56 36 16 C21.48 16 6.96 16 -8 16 C-5.36 10.72 -2.72 5.44 0 0 Z " fill="#FDC164" transform="translate(380,54)"/>
<path d="M0 0 C14.52 0 29.04 0 44 0 C44 5.28 44 10.56 44 16 C29.48 16 14.96 16 0 16 C0 10.72 0 5.44 0 0 Z " fill="#FFC265" transform="translate(37,54)"/>
<path d="M0 0 C5.28 0 10.56 0 16 0 C16.32406487 5.09759191 16.60109856 10.15903714 16.76904297 15.25878906 C16.83900589 16.98626074 16.93423531 18.71291616 17.05615234 20.4375 C18.01573097 34.37154926 18.01573097 34.37154926 14.61291504 38.80871582 C10.92383534 42.27646644 5.23314167 47 0 47 C0 31.49 0 15.98 0 0 Z " fill="#FECE85" transform="translate(199,118)"/>
<path d="M0 0 C9.9 0 19.8 0 30 0 C30 5.28 30 10.56 30 16 C20.1 16 10.2 16 0 16 C0 10.72 0 5.44 0 0 Z " fill="#FDE5BE" transform="translate(432,410)"/>
<path d="M0 0 C9.9 0 19.8 0 30 0 C30 5.28 30 10.56 30 16 C20.1 16 10.2 16 0 16 C0 10.72 0 5.44 0 0 Z " fill="#FBE4BD" transform="translate(197,410)"/>
<path d="M0 0 C9.9 0 19.8 0 30 0 C30 5.28 30 10.56 30 16 C20.1 16 10.2 16 0 16 C0 10.72 0 5.44 0 0 Z " fill="#FDE5BE" transform="translate(79,410)"/>
<path d="M0 0 C9.9 0 19.8 0 30 0 C30 5.28 30 10.56 30 16 C20.1 16 10.2 16 0 16 C0 10.72 0 5.44 0 0 Z " fill="#FDE5BE" transform="translate(432,86)"/>
<path d="M0 0 C9.9 0 19.8 0 30 0 C30 5.28 30 10.56 30 16 C20.1 16 10.2 16 0 16 C0 10.72 0 5.44 0 0 Z " fill="#FBE4BD" transform="translate(197,86)"/>
<path d="M0 0 C9.9 0 19.8 0 30 0 C30 5.28 30 10.56 30 16 C20.1 16 10.2 16 0 16 C0 10.72 0 5.44 0 0 Z " fill="#FDE5BE" transform="translate(79,86)"/>
<path d="M0 0 C9.57 0 19.14 0 29 0 C29 5.28 29 10.56 29 16 C19.43 16 9.86 16 0 16 C0 10.72 0 5.44 0 0 Z " fill="#FDE6BF" transform="translate(315,410)"/>
</svg>
