<?xml version="1.0" encoding="UTF-8"?>
<svg version="1.1" xmlns="http://www.w3.org/2000/svg" width="512" height="512">
<path d="M0 0 C3.93858656 0.85621447 4.57139131 2.32733488 6.875 5.625 C8.54624183 8.57483875 10.05139926 11.59829871 11.55175781 14.63793945 C12.00100616 15.53599808 12.45025452 16.4340567 12.91311646 17.35932922 C14.39049534 20.31617007 15.85933755 23.27716459 17.328125 26.23828125 C18.35321521 28.29405929 19.37883706 30.3495723 20.40496826 32.40483093 C23.09979885 37.80592764 25.78740151 43.21058963 28.47351074 48.61602783 C31.21756437 54.13486346 33.96844411 59.65029392 36.71875 65.16601562 C42.11084989 75.98235682 47.49531943 86.80247712 52.875 97.625 C54.71964844 97.69847656 54.71964844 97.69847656 56.6015625 97.7734375 C58.23439566 97.84851029 59.86720712 97.92405615 61.5 98 C62.30824219 98.0309375 63.11648438 98.061875 63.94921875 98.09375 C69.38704706 98.35900992 74.56202325 98.63529362 78.859375 102.33203125 C79.44203125 103.02683594 80.0246875 103.72164063 80.625 104.4375 C81.29789062 105.23542969 81.97078125 106.03335938 82.6640625 106.85546875 C85.96791412 110.99403907 89.19712688 115.18388979 92.3828125 119.4140625 C95.0703139 122.94071799 97.95988794 126.28578093 100.875 129.625 C101.19549316 129.17922607 101.51598633 128.73345215 101.84619141 128.27416992 C109.33020898 117.87146492 116.87664323 107.51772134 124.4921875 97.2109375 C126.71491087 94.20192733 128.92859002 91.1866512 131.1328125 88.1640625 C131.63925293 87.47014404 132.14569336 86.77622559 132.66748047 86.0612793 C133.61324175 84.76430314 134.55765925 83.46634562 135.50048828 82.16723633 C137.19520683 79.84492903 138.83853689 77.66146311 140.875 75.625 C144.25 75.6875 144.25 75.6875 147.875 76.625 C150.86483511 79.87516471 152.96296738 83.36310099 155.01953125 87.25390625 C155.60605469 88.35669922 156.19257813 89.45949219 156.796875 90.59570312 C157.42712497 91.79294684 158.05733211 92.99021309 158.6875 94.1875 C159.35231263 95.44104809 160.01768768 96.69429805 160.68359375 97.94726562 C162.06549247 100.54849402 163.44497131 103.15098379 164.82275391 105.75439453 C167.9842397 111.72335866 171.18146151 117.67313744 174.375 123.625 C175.62387448 125.95563456 176.87257181 128.28636406 178.12109375 130.6171875 C178.73968262 131.77186523 179.35827148 132.92654297 179.99560547 134.11621094 C181.56840128 137.0525868 183.14081683 139.98916541 184.7129364 142.92590332 C193.40987077 159.17179969 202.13071642 175.40454764 210.875 191.625 C212.78962036 191.60143433 212.78962036 191.60143433 214.74291992 191.57739258 C219.48585684 191.52302619 224.2287663 191.48862537 228.97192383 191.46020508 C231.02340326 191.44513378 233.07485056 191.42467318 235.1262207 191.39868164 C238.07771748 191.36222576 241.02878763 191.34525694 243.98046875 191.33203125 C245.35261787 191.30880547 245.35261787 191.30880547 246.75248718 191.28511047 C251.58537666 191.28383786 255.05242789 191.32731438 258.875 194.625 C260.56567383 196.92382812 260.56567383 196.92382812 262.08203125 199.65625 C262.66017578 200.68041016 263.23832031 201.70457031 263.83398438 202.75976562 C264.44564453 203.87029297 265.05730469 204.98082031 265.6875 206.125 C266.68102579 207.89444581 267.67924979 209.6611877 268.67770386 211.42785645 C269.36881176 212.65127459 270.0585107 213.87548963 270.74685669 215.10046387 C274.35049962 221.50492828 278.10781447 227.81560994 281.875 234.125 C288.46956664 245.20798151 294.95011496 256.35248594 301.3671875 267.5390625 C303.63523126 271.48908251 305.93046265 275.42057794 308.2578125 279.3359375 C308.77625732 280.21314453 309.29470215 281.09035156 309.82885742 281.99414062 C310.78807267 283.61424682 311.7539457 285.23043767 312.7277832 286.84179688 C313.14632568 287.55142578 313.56486816 288.26105469 313.99609375 288.9921875 C314.3614624 289.60175293 314.72683105 290.21131836 315.10327148 290.83935547 C315.875 292.625 315.875 292.625 315.875 296.625 C267.50031238 296.67633863 219.12562281 296.7241026 170.75091553 296.75202942 C170.03532108 296.75244359 169.31972664 296.75285776 168.58244752 296.75328448 C153.03185469 296.76226253 137.48126156 296.77057318 121.93066801 296.77819599 C114.30501559 296.7819381 106.67936325 296.78582775 99.05371094 296.78979492 C98.29485389 296.7901872 97.53599683 296.79057948 96.75414411 296.79098364 C72.143173 296.80377501 47.53222251 296.8263144 22.92126389 296.85389166 C-2.36291571 296.88217193 -27.64708389 296.90065226 -52.93127904 296.90674497 C-56.49986324 296.90760948 -60.0684474 296.90858639 -63.63703156 296.90963173 C-64.33940231 296.909834 -65.04177306 296.91003627 -65.76542777 296.91024467 C-77.08630254 296.91379425 -88.40714208 296.92772035 -99.72800246 296.9454961 C-111.10042735 296.96313249 -122.47280657 296.96966688 -133.84524843 296.96550413 C-140.01069588 296.96357534 -146.17603962 296.96661132 -152.34146881 296.98261642 C-157.9793553 296.99714584 -163.61706773 296.99799788 -169.254962 296.98769668 C-171.30078355 296.98642231 -173.34661568 296.99028658 -175.39241621 296.99964955 C-178.16155537 297.01159195 -180.93005623 297.00525949 -183.69918442 296.99414349 C-184.50368385 297.00202453 -185.30818328 297.00990557 -186.13706148 297.01802543 C-189.36881815 296.9884688 -191.73941132 296.82801596 -194.62481904 295.30882245 C-196.125 293.625 -196.125 293.625 -196.55371094 290.31469727 C-196.0966819 286.38128049 -195.1755124 284.03695079 -193.265625 280.58984375 C-192.65066162 279.46239746 -192.03569824 278.33495117 -191.40209961 277.17333984 C-190.72663376 275.96959521 -190.05092808 274.76598514 -189.375 273.5625 C-188.68293534 272.30496364 -187.9922777 271.04665199 -187.30297852 269.78759766 C-185.91098198 267.25007161 -184.51128212 264.7170708 -183.10400391 262.18798828 C-180.87447169 258.17996826 -178.68022932 254.15312014 -176.48950195 250.1237793 C-175.04664612 247.47085001 -173.59782584 244.82124003 -172.1484375 242.171875 C-168.20172641 234.94447659 -164.30599182 227.6896922 -160.40600586 220.43701172 C-155.96741456 212.18424421 -151.51242124 203.94054064 -147.03955078 195.70629883 C-144.44371558 190.92347446 -141.8591757 186.1352403 -139.30343628 181.33084106 C-138.34697332 179.53293303 -137.38855784 177.7360782 -136.4296875 175.93945312 C-135.21318171 173.65786852 -134.00073448 171.37411384 -132.79296875 169.08789062 C-132.24125 168.05470703 -131.68953125 167.02152344 -131.12109375 165.95703125 C-130.63825928 165.04671143 -130.1554248 164.1363916 -129.65795898 163.19848633 C-125.53440111 156.27597899 -125.53440111 156.27597899 -122.3828125 154.8203125 C-118.92026789 154.52078442 -115.47210165 154.48136618 -112 154.5 C-111.27167969 154.49613281 -110.54335937 154.49226562 -109.79296875 154.48828125 C-104.37842069 154.49828966 -104.37842069 154.49828966 -102.125 155.625 C-101.898125 154.99078125 -101.67125 154.3565625 -101.4375 153.703125 C-99.61646266 149.43235886 -97.37509918 145.43274578 -95.125 141.375 C-94.63225586 140.48312988 -94.13951172 139.59125977 -93.63183594 138.67236328 C-90.23249091 132.54852716 -86.74057639 126.48692112 -83.16674805 120.46362305 C-79.37269516 114.06743155 -75.64994862 107.63135546 -71.9375 101.1875 C-71.30046143 100.08212891 -70.66342285 98.97675781 -70.00708008 97.83789062 C-68.0458598 94.43389695 -66.08535461 91.02949228 -64.125 87.625 C-44.81838725 54.10205806 -44.81838725 54.10205806 -36.74755859 40.38330078 C-35.68282263 38.57328169 -34.62056296 36.76180317 -33.56103516 34.94873047 C-32.11445561 32.47977042 -30.65354059 30.01994154 -29.1875 27.5625 C-28.5692334 26.50095703 -28.5692334 26.50095703 -27.93847656 25.41796875 C-23.54367557 18.13212999 -17.46084322 12.75426984 -11.03515625 7.26953125 C-9.83067678 6.23254586 -8.64721662 5.17013189 -7.49609375 4.07421875 C-5.01991469 1.77906584 -3.33782348 0.6675647 0 0 Z " fill="#007AA0" transform="translate(196.125,107.375)"/>
<path d="M0 0 C2.84570731 3.37716694 5.03596317 6.68539705 7.03125 10.62109375 C7.86619995 12.25340942 7.86619995 12.25340942 8.71801758 13.91870117 C9.30607178 15.07990479 9.89412598 16.2411084 10.5 17.4375 C11.76062617 19.9029454 13.02630319 22.36577788 14.29296875 24.828125 C14.60932785 25.44390915 14.92568695 26.0596933 15.25163269 26.69413757 C18.02150693 32.07232011 20.89379731 37.3890021 23.8125 42.6875 C28.79643644 51.74588925 33.66174004 60.86331848 38.5 70 C44.92824054 82.13730367 51.4336185 94.22765679 58.0546875 106.26123047 C58.7257063 107.49547528 59.37172833 108.74345665 60 110 C61.27641357 109.98428955 62.55282715 109.9685791 63.86791992 109.95239258 C68.61085684 109.89802619 73.3537663 109.86362537 78.09692383 109.83520508 C80.14840326 109.82013378 82.19985056 109.79967318 84.2512207 109.77368164 C87.20271748 109.73722576 90.15378763 109.72025694 93.10546875 109.70703125 C94.47761787 109.68380547 94.47761787 109.68380547 95.87748718 109.66011047 C100.71037666 109.65883786 104.17742789 109.70231438 108 113 C109.69067383 115.29882812 109.69067383 115.29882812 111.20703125 118.03125 C111.78517578 119.05541016 112.36332031 120.07957031 112.95898438 121.13476562 C113.57064453 122.24529297 114.18230469 123.35582031 114.8125 124.5 C115.80602579 126.26944581 116.80424979 128.0361877 117.80270386 129.80285645 C118.49381176 131.02627459 119.1835107 132.25048963 119.87185669 133.47546387 C123.47549962 139.87992828 127.23281447 146.19060994 131 152.5 C137.59456664 163.58298151 144.07511496 174.72748594 150.4921875 185.9140625 C152.76023126 189.86408251 155.05546265 193.79557794 157.3828125 197.7109375 C158.16047974 199.02674805 158.16047974 199.02674805 158.95385742 200.36914062 C159.91307267 201.98924682 160.8789457 203.60543767 161.8527832 205.21679688 C162.27132568 205.92642578 162.68986816 206.63605469 163.12109375 207.3671875 C163.4864624 207.97675293 163.85183105 208.58631836 164.22827148 209.21435547 C165 211 165 211 165 215 C55.11 215 -54.78 215 -168 215 C-167.11154428 210.55772138 -166.82177681 209.30680523 -164.296875 205.98828125 C-163.73548828 205.23998047 -163.17410156 204.49167969 -162.59570312 203.72070312 C-161.98662109 202.92599609 -161.37753906 202.13128906 -160.75 201.3125 C-159.46268169 199.60090688 -158.1762431 197.88865181 -156.890625 196.17578125 C-155.91125977 194.87761475 -155.91125977 194.87761475 -154.91210938 193.55322266 C-152.05591621 189.73937331 -149.27672839 185.871879 -146.5 182 C-141.46280778 174.99903951 -136.36157507 168.04765779 -131.23486328 161.11206055 C-127.7963637 156.4546649 -124.38161073 151.78192668 -121.00952148 147.07617188 C-119.91989012 145.56712601 -118.81776453 144.06702359 -117.70336914 142.57617188 C-115.07584079 139.04107956 -112.73666502 135.62208229 -110.78515625 131.66796875 C-105.90920796 122.57384633 -100.15452705 119.15008123 -90.51448059 116.21508789 C-82.8535987 114.01609961 -75.10130968 112.21642055 -67.31744385 110.51391602 C-63.32071639 109.62760231 -59.33887379 108.67844097 -55.35546875 107.734375 C-53.92866286 107.39797069 -52.501827 107.06169347 -51.07495117 106.72558594 C-50.06021729 106.48614258 -49.0454834 106.24669922 -48 106 C-47.91959473 106.98919434 -47.83918945 107.97838867 -47.75634766 108.99755859 C-47.45606605 112.66225784 -47.14390859 116.3258645 -46.828125 119.98925781 C-46.69303649 121.5758983 -46.56118417 123.16281775 -46.43261719 124.75 C-46.24741148 127.02945491 -46.05064584 129.30765802 -45.8515625 131.5859375 C-45.79626373 132.29744965 -45.74096497 133.00896179 -45.68399048 133.74203491 C-45.39572341 137.81394163 -45.39572341 137.81394163 -43 141 C-40.17368882 141.8360067 -40.17368882 141.8360067 -37 141 C-31.82698092 135.65139304 -28.07005928 128.57998331 -24.125 122.3125 C-23.26455078 120.95608398 -23.26455078 120.95608398 -22.38671875 119.57226562 C-21.20248348 117.70096289 -20.02954344 115.82247103 -18.8671875 113.9375 C-17.58778098 111.92470983 -16.24499337 109.95122716 -14.8515625 108.015625 C-8.53879788 98.87812694 -7.47278059 91.13392227 -6.75 80.375 C-6.60935364 78.66389551 -6.46563184 76.95304147 -6.3190918 75.24243164 C-5.92486131 70.53521515 -5.57437134 65.82561413 -5.23114014 61.11444092 C-4.81466926 55.50280656 -4.35969939 49.89422084 -3.91015625 44.28515625 C-3.36258601 37.43175062 -2.82004887 30.57815381 -2.30566406 23.72216797 C-2.2256163 22.66138535 -2.14556854 21.60060272 -2.06309509 20.50767517 C-1.91376465 18.5209777 -1.76630534 16.53413829 -1.62110901 14.5471344 C-1.25280589 9.65940661 -0.76176876 4.84252459 0 0 Z " fill="#005F7E" transform="translate(347,189)"/>
<path d="M0 0 C4.31257863 1.35790937 4.65907028 1.89135346 6.8359375 5.6171875 C7.83085065 7.52762174 8.7996825 9.45179837 9.74609375 11.38671875 C10.78010427 13.39381983 11.81526265 15.40032998 12.8515625 17.40625 C13.35091309 18.39189941 13.85026367 19.37754883 14.36474609 20.39306641 C16.31699751 24.18731358 18.41368759 27.88644204 20.55859375 31.57421875 C21.1928125 32.67507813 21.82703125 33.7759375 22.48046875 34.91015625 C22.91875 35.66554688 23.35703125 36.4209375 23.80859375 37.19921875 C26.99246185 36.18356041 29.8134391 35.19653834 32.74609375 33.57421875 C36.36232366 31.95060532 38.88460303 31.82191195 42.80859375 32.19921875 C44.80859375 34.19921875 44.80859375 34.19921875 45.07421875 38.10546875 C44.94269791 43.78354101 43.78758525 49.17142101 42.55859375 54.69921875 C42.33042969 55.75512207 42.10226563 56.81102539 41.8671875 57.89892578 C41.19225348 61.00164273 40.50307878 64.10082636 39.80859375 67.19921875 C39.62748047 68.01616211 39.44636719 68.83310547 39.25976562 69.67480469 C37.42540571 77.90784358 35.35447156 86.06541122 33.12109375 94.19921875 C32.90646484 94.98409668 32.69183594 95.76897461 32.47070312 96.57763672 C30.93165942 102.07615308 30.93165942 102.07615308 29.80859375 103.19921875 C26.64246712 103.29458117 23.49818747 103.32472511 20.33178711 103.31274414 C18.83927177 103.31296318 18.83927177 103.31296318 17.31660461 103.31318665 C14.01052713 103.31248706 10.70450521 103.30469254 7.3984375 103.296875 C5.11300182 103.29501098 2.82756574 103.293587 0.54212952 103.29258728 C-5.48639012 103.28876082 -11.51488584 103.27892945 -17.543396 103.2678833 C-23.68973466 103.25767192 -29.83607718 103.25309025 -35.98242188 103.24804688 C-48.05209387 103.23730729 -60.12174807 103.22022935 -72.19140625 103.19921875 C-70.98874496 99.9940692 -69.68516814 97.19710219 -67.76245117 94.36669922 C-67.27454102 93.64340424 -66.78663086 92.92010925 -66.28393555 92.17489624 C-65.75195557 91.39659454 -65.21997559 90.61829285 -64.671875 89.81640625 C-64.10936035 88.98517242 -63.5468457 88.1539386 -62.96728516 87.29751587 C-61.10888281 84.55341131 -59.24392814 81.8138277 -57.37890625 79.07421875 C-56.0813143 77.1611279 -54.78420203 75.24771161 -53.48754883 73.33398438 C-51.46490242 70.34915324 -49.44177279 67.36465798 -47.41679382 64.38140869 C-42.62679885 57.32420561 -37.856376 50.25410539 -33.09765625 43.17578125 C-31.79012647 41.23192954 -30.48259075 39.28808183 -29.17504883 37.34423828 C-27.29445058 34.54822242 -25.41429439 31.75191571 -23.53573608 28.95452881 C-4.26492445 0.26623151 -4.26492445 0.26623151 0 0 Z " fill="#005F7E" transform="translate(101.19140625,300.80078125)"/>
<path d="M0 0 C1.67236328 1.21728516 1.67236328 1.21728516 3 3 C3.29638672 5.23193359 3.29638672 5.23193359 3.1796875 7.8984375 C3.12095459 9.42392212 3.12095459 9.42392212 3.06103516 10.98022461 C2.99964355 12.10050049 2.93825195 13.22077637 2.875 14.375 C2.82005371 15.56037354 2.76510742 16.74574707 2.70849609 17.96704102 C2.00254593 31.91357795 0.82020713 45.82806736 -0.38172913 59.73907471 C-0.87861509 65.50769216 -1.34199073 71.27841007 -1.79296875 77.05078125 C-1.98674215 79.49680171 -2.18121502 81.94276529 -2.3760376 84.38870239 C-2.4987591 85.94280648 -2.61953908 87.4970653 -2.73822021 89.05148315 C-3.74679057 102.21298516 -4.93655603 111.29971873 -12.375 122.375 C-13.6413047 124.3068463 -14.90691633 126.23914706 -16.171875 128.171875 C-16.81060547 129.13931641 -17.44933594 130.10675781 -18.10742188 131.10351562 C-19.92579193 133.88642873 -21.6987794 136.69200271 -23.453125 139.515625 C-23.9888916 140.37752441 -24.5246582 141.23942383 -25.07666016 142.12744141 C-26.08438669 143.75296055 -27.08941452 145.38015687 -28.09130859 147.00927734 C-32.7446775 154.45762003 -32.7446775 154.45762003 -36 157 C-39.625 157 -39.625 157 -43 156 C-45.54679123 152.54978262 -45.43584926 148.52252099 -45.6328125 144.390625 C-45.67437469 143.66381531 -45.71593689 142.93700562 -45.75875854 142.18817139 C-45.88909464 139.87581687 -46.00720933 137.56302414 -46.125 135.25 C-46.21143316 133.67834086 -46.29866374 132.10672536 -46.38671875 130.53515625 C-46.60038861 126.6905485 -46.80310322 122.84550176 -47 119 C-50.80933977 119.97571095 -54.61790714 120.95437518 -58.42578125 121.93579102 C-60.35897132 122.43337438 -62.29276488 122.92861119 -64.2265625 123.42382812 C-65.43828125 123.73642578 -66.65 124.04902344 -67.8984375 124.37109375 C-69.57945557 124.8031311 -69.57945557 124.8031311 -71.29443359 125.24389648 C-73.94015006 125.89091837 -73.94015006 125.89091837 -76 127 C-78.04055005 127.07065617 -80.08334257 127.08421976 -82.125 127.0625 C-83.22070312 127.05347656 -84.31640625 127.04445313 -85.4453125 127.03515625 C-86.70988281 127.01775391 -86.70988281 127.01775391 -88 127 C-88 122.77597043 -85.91684086 119.88863621 -83.875 116.3125 C-83.42979004 115.52214355 -82.98458008 114.73178711 -82.52587891 113.91748047 C-78.28901383 106.43037795 -73.94300553 99.00608779 -69.59277344 91.58447266 C-65.38548576 84.40105177 -61.24118565 77.18355032 -57.12597656 69.94711304 C-51.289663 59.68747879 -45.38231351 49.47303316 -39.375 39.3125 C-38.72418457 38.20865967 -38.07336914 37.10481934 -37.40283203 35.9675293 C-35.62144934 32.96592955 -33.81955509 29.97859033 -32 27 C-31.50290527 26.17918945 -31.00581055 25.35837891 -30.49365234 24.51269531 C-26.9510712 18.90530228 -22.78844689 14.55530647 -17.875 10.125 C-17.17246094 9.4753125 -16.46992188 8.825625 -15.74609375 8.15625 C-6.03026713 -0.76982134 -6.03026713 -0.76982134 0 0 Z " fill="#CDDCE0" transform="translate(199,108)"/>
<path d="M0 0 C6.13261557 0.3345063 6.13261557 0.3345063 8.71266174 2.31402588 C11.01472562 5.32894454 10.10744911 9.12707936 9.83984375 12.734375 C9.7837645 13.6489447 9.72768524 14.5635144 9.66990662 15.50579834 C9.46733328 18.67230266 9.23622547 21.83583262 9 25 C8.87205048 26.75872437 8.87205048 26.75872437 8.74151611 28.55297852 C8.11349222 37.10288814 7.42992526 45.64765378 6.73010254 54.19189453 C6.56208875 56.25505007 6.39665311 58.31839547 6.23217773 60.38183594 C5.61180177 68.16377235 4.96895248 75.94328805 4.2852478 83.7199707 C4.10781366 85.76026403 3.93591994 87.80105661 3.77261353 89.8425293 C3.07427366 98.51662358 2.23643829 105.7720862 -2.9375 113 C-3.42114014 113.7307373 -3.90478027 114.46147461 -4.40307617 115.21435547 C-5.40876914 116.73045103 -6.42711084 118.23823313 -7.45800781 119.73730469 C-9.00590687 122.00866765 -10.4907625 124.31050409 -11.9609375 126.6328125 C-22.93671259 143.93671259 -22.93671259 143.93671259 -27 148 C-32.3763201 148.4675061 -32.3763201 148.4675061 -34.6496582 146.76342773 C-36.309444 144.59589333 -36.49653474 143.24186961 -36.73046875 140.53515625 C-36.81103516 139.65150391 -36.89160156 138.76785156 -36.97460938 137.85742188 C-37.04486328 136.93509766 -37.11511719 136.01277344 -37.1875 135.0625 C-37.3102832 133.7312207 -37.3102832 133.7312207 -37.43554688 132.37304688 C-38.01791683 125.57546811 -38.08711151 118.81926805 -38 112 C-38.59087402 112.17539307 -39.18174805 112.35078613 -39.79052734 112.53149414 C-51.9344548 116.12714962 -64.10107408 119.64018355 -76.3125 123 C-77.43253418 123.31461182 -78.55256836 123.62922363 -79.70654297 123.95336914 C-80.7482666 124.23688232 -81.78999023 124.52039551 -82.86328125 124.8125 C-83.78407471 125.06644531 -84.70486816 125.32039063 -85.65356445 125.58203125 C-88 126 -88 126 -91 125 C-90.39414063 124.22398437 -89.78828125 123.44796875 -89.1640625 122.6484375 C-83.37988631 115.20497171 -77.82754206 107.62910368 -72.37890625 99.93798828 C-69.2935609 95.6016796 -66.16665289 91.29517774 -63.04785156 86.98291016 C-62.5009668 86.22671387 -61.95408203 85.47051758 -61.390625 84.69140625 C-60.83697266 83.92586426 -60.28332031 83.16032227 -59.71289062 82.37158203 C-57.94627275 79.92561195 -56.1836221 77.47682401 -54.421875 75.02734375 C-53.54656128 73.81159668 -53.54656128 73.81159668 -52.65356445 72.57128906 C-51.53910526 71.02319125 -50.42560537 69.47440223 -49.31323242 67.92480469 C-47.2275609 65.02986211 -45.14870068 62.18046731 -42.87890625 59.42578125 C-41.02285555 57.02950789 -39.58487271 54.54282542 -38.11669922 51.89697266 C-36.01307991 48.32348731 -33.51477325 45.02675001 -31.0625 41.6875 C-29.9022055 40.09515281 -28.7420534 38.50270186 -27.58203125 36.91015625 C-26.98986816 36.09949707 -26.39770508 35.28883789 -25.78759766 34.45361328 C-23.47847507 31.28416751 -21.1889269 28.10086066 -18.89941406 24.91723633 C-3.45831751 3.45831751 -3.45831751 3.45831751 0 0 Z " fill="#CDDCE0" transform="translate(337,183)"/>
<path d="M0 0 C0.41507812 0.69738281 0.83015625 1.39476562 1.2578125 2.11328125 C1.98871094 3.3353125 1.98871094 3.3353125 2.734375 4.58203125 C3.27835937 5.52046875 3.82234375 6.45890625 4.3828125 7.42578125 C5.07117188 8.48796875 5.75953125 9.55015625 6.46875 10.64453125 C11.59770015 18.72591848 13.88255251 25.7207375 14.3828125 35.42578125 C14.48529297 37.12927734 14.48529297 37.12927734 14.58984375 38.8671875 C14.84393867 46.68766461 14.84393867 46.68766461 13.23828125 49.2578125 C10.43006357 51.02551163 8.6367115 50.91916694 5.3828125 50.42578125 C2.890625 48.484375 2.890625 48.484375 0.5078125 45.86328125 C-2.35893812 42.81363704 -5.15350627 39.85844648 -8.3671875 37.17578125 C-12.32696029 33.79548741 -15.957871 30.1235612 -19.6171875 26.42578125 C-23.77435698 22.22505269 -27.9527253 18.17254683 -32.46484375 14.3515625 C-35.62299189 11.525851 -38.61633831 8.54196198 -41.6171875 5.55078125 C-42.50096069 4.67377563 -42.50096069 4.67377563 -43.40258789 3.77905273 C-47.6171875 -0.45049447 -47.6171875 -0.45049447 -47.6171875 -1.57421875 C-42.03062658 -1.74238758 -36.44391658 -1.90288679 -30.85693359 -2.05639648 C-28.9577853 -2.10964515 -27.05869375 -2.16496011 -25.15966797 -2.22241211 C-22.42427805 -2.30480337 -19.68876777 -2.37967178 -16.953125 -2.453125 C-16.10914154 -2.48016006 -15.26515808 -2.50719513 -14.39559937 -2.53504944 C-2.9007412 -2.82366837 -2.9007412 -2.82366837 0 0 Z " fill="#CDDCE0" transform="translate(454.6171875,301.57421875)"/>
</svg>
